# Blender 5.0.0
# www.blender.org
mtllib plane.mtl
o Cube
v -1.000000 -0.630548 1.000000
v -1.000000 0.630548 1.000000
v -1.000000 -0.630548 -1.000000
v -1.000000 0.630548 -1.000000
v 0.969341 -0.630548 1.000000
v 0.969341 0.630548 1.000000
v 0.969341 -0.630548 -1.000000
v 0.969341 0.630548 -1.000000
v 3.579742 0.630548 -1.000000
v 3.579742 -0.630548 -1.000000
v 3.579742 -0.630548 1.000000
v 3.579742 0.630548 1.000000
v 6.239893 0.099136 -0.157222
v 6.239893 -0.099136 -0.157222
v 6.239893 -0.099136 0.157222
v 6.239893 0.099136 0.157222
v 0.969341 0.065906 -3.978042
v 0.969341 -0.065906 -3.978042
v 3.579741 0.065906 -3.978042
v 3.579741 -0.065906 -3.978042
v 0.969341 0.087603 3.810107
v 0.969341 -0.087603 3.810107
v 3.579741 0.087603 3.810107
v 3.579741 -0.087603 3.810107
v -3.664268 -0.246769 -0.391357
v -3.664268 -0.246769 0.391357
v -3.664268 0.246769 0.391357
v -3.664268 0.246769 -0.391357
v -2.332134 0.438658 -0.695678
v -2.332134 0.438658 0.695678
v -2.332134 -0.438658 0.695678
v -2.332134 -0.438658 -0.695678
v -2.998201 0.342714 -0.543518
v -2.998201 -0.342714 0.543518
v -2.998201 0.342714 0.543518
v -2.998201 -0.342714 -0.543518
v -3.335612 -0.065084 -2.020496
v -2.669545 -0.083304 -2.172657
v -2.669545 0.083304 -2.172657
v -3.335612 0.065084 -2.020496
v -3.308118 0.084242 1.900147
v -2.642051 0.107827 2.052308
v -2.642051 -0.107827 2.052308
v -3.308118 -0.084242 1.900147
v -3.652853 2.263603 0.043761
v -3.652853 2.263603 -0.043761
v -3.578375 2.274332 -0.060775
v -3.578375 2.274332 0.060775
v 4.909818 0.364842 -0.578611
v 4.909818 -0.364842 -0.578611
v 4.909818 -0.364842 0.578611
v 4.909818 0.364842 0.578611
v 5.574856 0.231989 -0.367917
v 5.574856 -0.231989 0.367917
v 5.574856 -0.231989 -0.367917
v 5.574856 0.231989 0.367917
v 5.524824 0.231989 -0.367917
v 5.524824 -0.231989 0.367917
v 5.524824 -0.231989 -0.367917
v 5.524824 0.231989 0.367917
vn -0.2423 0.1661 -0.9559
vn -0.0000 -0.0000 -1.0000
vn -0.0000 1.0000 -0.0000
vn -0.0000 -0.0000 1.0000
vn -0.0000 -1.0000 -0.0000
vn 0.3020 -0.0000 -0.9533
vn -0.0000 -0.9825 -0.1863
vn 1.0000 -0.0000 -0.0000
vn 0.3020 -0.0000 0.9533
vn 0.1959 -0.9806 -0.0000
vn 0.1959 0.9806 -0.0000
vn -1.0000 -0.0000 -0.0000
vn -0.0000 0.9825 -0.1863
vn -0.0000 0.9818 0.1897
vn -0.0000 -0.9818 0.1897
vn -0.1426 -0.9898 -0.0000
vn -0.2227 -0.0000 -0.9749
vn -0.2227 -0.0000 0.9749
vn -0.1426 0.9898 -0.0000
vn -0.1830 0.9639 0.1933
vn 0.9749 -0.0000 -0.2227
vn -0.1824 -0.9646 -0.1904
vn -0.0657 0.9833 -0.1698
vn -0.9749 -0.0000 0.2227
vn -0.9749 -0.0000 -0.2227
vn 0.9749 -0.0000 0.2227
vn -0.0737 -0.9826 0.1704
vn -1.0000 0.0057 -0.0000
vn -0.2423 0.1661 0.9559
vn 0.9577 0.2877 -0.0000
vn -0.0737 0.9826 0.1704
vn -0.0657 -0.9833 -0.1698
vn -0.1824 0.9646 -0.1904
vn -0.1830 -0.9639 0.1933
vt 0.625000 0.250000
vt 0.375000 0.500000
vt 0.375000 0.250000
vt 0.625000 0.750000
vt 0.625000 0.500000
vt 0.375000 1.000000
vt 0.375000 0.750000
vt 0.125000 0.750000
vt 0.125000 0.500000
vt 0.875000 0.500000
vt 0.625000 0.500000
vt 0.625000 0.000000
vt 0.375000 0.000000
vt 0.625000 1.000000
vt 0.875000 0.750000
vt 0.625000 0.500000
s 0
f 33/1/1 46/1/1 47/1/1
f 4/1/2 7/2/2 3/3/2
f 6/4/3 9/5/3 8/5/3
f 6/4/4 1/6/4 5/7/4
f 7/2/5 1/8/5 3/9/5
f 4/10/3 6/4/3 8/5/3
f 53/11/6 14/2/6 55/2/6
f 7/2/7 20/2/7 10/2/7
f 12/4/8 24/7/8 11/7/8
f 7/2/5 11/7/5 5/7/5
f 13/5/8 15/7/8 14/2/8
f 54/7/9 16/4/9 56/4/9
f 55/2/10 15/7/10 54/7/10
f 56/4/11 13/5/11 53/11/11
f 17/5/2 20/2/2 18/2/2
f 10/2/8 19/5/8 9/5/8
f 8/5/12 18/2/12 7/2/12
f 9/5/13 17/5/13 8/5/13
f 22/7/4 23/4/4 21/4/4
f 5/7/12 21/4/12 6/4/12
f 6/4/14 23/4/14 12/4/14
f 11/7/15 22/7/15 5/7/15
f 27/12/12 25/3/12 26/13/12
f 36/9/16 26/8/16 25/9/16
f 36/3/17 28/1/17 33/1/17
f 35/14/18 26/6/18 34/6/18
f 2/14/18 31/6/18 1/6/18
f 3/3/17 29/1/17 4/1/17
f 1/8/16 32/9/16 3/9/16
f 4/10/19 30/15/19 2/15/19
f 35/15/20 42/15/20 30/15/20
f 32/3/21 39/1/21 29/1/21
f 31/8/16 36/9/16 32/9/16
f 29/10/19 35/15/19 30/15/19
f 38/3/17 40/1/17 39/1/17
f 36/9/22 38/9/22 32/9/22
f 33/10/23 39/10/23 40/10/23
f 36/3/24 40/1/24 37/3/24
f 42/14/18 44/6/18 43/6/18
f 34/6/25 41/14/25 35/14/25
f 30/14/26 43/6/26 31/6/26
f 34/8/27 43/8/27 44/8/27
f 47/10/19 45/15/19 48/15/19
f 27/12/28 46/1/28 28/1/28
f 35/14/29 45/14/29 27/14/29
f 33/10/30 48/15/30 35/15/30
f 12/4/11 49/16/11 9/5/11
f 10/2/10 51/7/10 11/7/10
f 11/7/9 52/4/9 12/4/9
f 9/5/6 50/2/6 10/2/6
f 52/4/11 53/11/11 49/16/11
f 50/2/10 54/7/10 51/7/10
f 51/7/9 56/4/9 52/4/9
f 49/16/6 55/2/6 50/2/6
f 54/7/2 60/4/2 56/4/2
f 56/4/5 57/11/5 53/11/5
f 53/11/4 59/2/4 55/2/4
f 55/2/3 58/7/3 54/7/3
f 33/1/1 28/1/1 46/1/1
f 4/1/2 8/5/2 7/2/2
f 6/4/3 12/4/3 9/5/3
f 6/4/4 2/14/4 1/6/4
f 7/2/5 5/7/5 1/8/5
f 4/10/3 2/15/3 6/4/3
f 53/11/6 13/5/6 14/2/6
f 7/2/7 18/2/7 20/2/7
f 12/4/8 23/4/8 24/7/8
f 7/2/5 10/2/5 11/7/5
f 13/5/8 16/4/8 15/7/8
f 54/7/9 15/7/9 16/4/9
f 55/2/10 14/2/10 15/7/10
f 56/4/11 16/4/11 13/5/11
f 17/5/2 19/5/2 20/2/2
f 10/2/8 20/2/8 19/5/8
f 8/5/12 17/5/12 18/2/12
f 9/5/13 19/5/13 17/5/13
f 22/7/4 24/7/4 23/4/4
f 5/7/12 22/7/12 21/4/12
f 6/4/14 21/4/14 23/4/14
f 11/7/15 24/7/15 22/7/15
f 27/12/12 28/1/12 25/3/12
f 36/9/16 34/8/16 26/8/16
f 36/3/17 25/3/17 28/1/17
f 35/14/18 27/14/18 26/6/18
f 2/14/18 30/14/18 31/6/18
f 3/3/17 32/3/17 29/1/17
f 1/8/16 31/8/16 32/9/16
f 4/10/19 29/10/19 30/15/19
f 35/15/31 41/15/31 42/15/31
f 32/3/21 38/3/21 39/1/21
f 31/8/16 34/8/16 36/9/16
f 29/10/19 33/10/19 35/15/19
f 38/3/17 37/3/17 40/1/17
f 36/9/32 37/9/32 38/9/32
f 33/10/33 29/10/33 39/10/33
f 36/3/24 33/1/24 40/1/24
f 42/14/18 41/14/18 44/6/18
f 34/6/25 44/6/25 41/14/25
f 30/14/26 42/14/26 43/6/26
f 34/8/34 31/8/34 43/8/34
f 47/10/19 46/10/19 45/15/19
f 27/12/28 45/12/28 46/1/28
f 35/14/29 48/14/29 45/14/29
f 33/10/30 47/10/30 48/15/30
f 12/4/11 52/4/11 49/16/11
f 10/2/10 50/2/10 51/7/10
f 11/7/9 51/7/9 52/4/9
f 9/5/6 49/16/6 50/2/6
f 52/4/11 56/4/11 53/11/11
f 50/2/10 55/2/10 54/7/10
f 51/7/9 54/7/9 56/4/9
f 49/16/6 53/11/6 55/2/6
f 54/7/2 58/7/2 60/4/2
f 56/4/5 60/4/5 57/11/5
f 53/11/4 57/11/4 59/2/4
f 55/2/3 59/2/3 58/7/3
